# xmcd CD database file
#
# Track frame offsets:
#	150
#	43392
#	72075
#	108720
#	158217
#	172919
#	207715
#	241901
#	254425
#	282581
#
# Disc length: 3964 seconds
#
# Revision: 0
# Processed by: cddbd v1.5.2PL0 Copyright (c) Steve Scherf et al.
# Submitted via: CDex 1.70beta2
#
DISCID=9a0f7a0a
DTITLE=AA.VV. - Saxophobia - The best of saxophone music CD 2
DYEAR=2006
DGENRE=Jazz
TTITLE0=John Coltrane - I talk to the trees
TTITLE1=Gerry Mulligan - Apple Core
TTITLE2=Johnny Griffin - Take my hand
TTITLE3=John Coltrane - Man Made Miles
TTITLE4=Charlie Parker - Begin the beguine
TTITLE5=Gerry Mulligan - Gerry meets Hamp
TTITLE6=Johnny Griffin - Hush a bye
TTITLE7=Charlie Parker - Tico, tico
TTITLE8=Gerry Mulligan - Flight of the bumble bee
TTITLE9=John Coltrane - Summertime
EXTD=YEAR: 2006
EXTT0=
EXTT1=
EXTT2=
EXTT3=
EXTT4=
EXTT5=
EXTT6=
EXTT7=
EXTT8=
EXTT9=
PLAYORDER=
